{"title":"Kiss.Me.Deadly.2008.720p.BRRip.x264.Feel-Free","uid":6058372,"size":1812043795,"categoryP":"video","categoryS":"hd___movies","magnet":"?xt=urn:btih:5a9576357baaacccc54970b920e674fb7548c0ed&amp;dn=Kiss.Me.Deadly.2008.720p.BRRip.x264.Feel-Free&amp;tr=udp%3A%2F%2Ftracker.openbittorrent.com%3A80&amp;tr=udp%3A%2F%2Fopen.demonii.com%3A1337&amp;tr=udp%3A%2F%2Ftracker.coppersurfer.tk%3A6969&amp;tr=udp%3A%2F%2Fexodus.desync.com%3A6969","seeders":0,"leechers":5,"uploader":"neon","files":-1,"time":1293008919,"description":"Genre:Action\nLanguage:English\nIMDb:http://www.imdb.com/title/tt1043839/\nSource:1080p.BluRay.x264-WAVEY\n\n\nFormat : Matroska\nFile size : 1.68 GiB\nDuration : 1h 30mn\nOverall bit rate : 2 674 Kbps\n\n\nVideo\nFormat settings, CABAC : Yes\nFormat settings, ReFrames : 4 frames\nCodec ID : V_MPEG4/ISO/AVC\nDuration : 1h 30mn\nBit rate : 2 300 Kbps\nWidth : 1 280 pixels\nHeight : 720 pixels\nDisplay aspect ratio : 16:9\nFrame rate mode : Variable\nFrame rate : 23.976 fps\nColor space : YUV\nChroma subsampling : 4:2:0\nBit depth : 8 bits\nScan type : Progressive\nBits/(Pixel*Frame) : 0.104\nStream size : 1.41 GiB (84%)\nWriting library : x264 core 106 r1732 b20059a\n\nAudio\nID : 2\nFormat : AC-3\nFormat/Info : Audio Coding 3\nMode extension : CM (complete main)\nCodec ID : A_AC3\nDuration : 1h 30mn\nBit rate mode : Constant\nBit rate : 384 Kbps\nChannel(s) : 6 channels\nChannel positions : Front: L C R, Side: L R, LFE\nSampling rate : 48.0 KHz\nBit depth : 16 bits\nVideo delay : -1mn 5s\nStream size : 247 MiB (14%)\nLanguage : English\n\n\n\nPlot:\nEx-spy Jacob Keane is drawn back into the shadowy world of international espionage when his former partner Marta reappears after 17 years, her memory erased, on the run from a pair of deadly, psychopathic assassins\n\nTRAILER: &lt;a href=&quot; http://www.imdb.com/video/screenplay/vi2548630553/&quot; rel=&quot;nofollow&quot; target=&quot;_NEW&quot;&gt; http://www.imdb.com/video/screenplay/vi2548630553/&lt;/a&gt;\n\n","torrent":{"xt":"urn:btih:5a9576357baaacccc54970b920e674fb7548c0ed","amp;dn":"Kiss.Me.Deadly.2008.720p.BRRip.x264.Feel-Free","amp;tr":["udp%3A%2F%2Ftracker.openbittorrent.com%3A80","udp%3A%2F%2Fopen.demonii.com%3A1337","udp%3A%2F%2Ftracker.coppersurfer.tk%3A6969","udp%3A%2F%2Fexodus.desync.com%3A6969"],"infoHash":"5a9576357baaacccc54970b920e674fb7548c0ed","infoHashBuffer":{"type":"Buffer","data":[90,149,118,53,123,170,172,204,197,73,112,185,32,230,116,251,117,72,192,237]},"announce":[],"urlList":[]}}